<?xml version="1.0" encoding="UTF-8"?>
<svg xmlns="http://www.w3.org/2000/svg" xmlns:xlink="http://www.w3.org/1999/xlink" width="100px" height="100px" viewBox="0 0 100 100" version="1.1">
<g id="surface1">
<path style=" stroke:none;fill-rule:evenodd;fill:rgb(13.333333%,76.470588%,74.117647%);fill-opacity:1;" d="M 57.257812 19.136719 L 56.898438 19.671875 L 56.160156 20.417969 L 55.421875 21.160156 L 53.863281 21.761719 L 52.300781 22.359375 L 46.003906 23.992188 L 44.421875 24.601562 L 42.84375 25.210938 L 40.5 26.726562 L 39.550781 27.785156 L 38.601562 28.839844 L 38.710938 29.019531 L 38.824219 29.199219 L 38.40625 29.199219 L 37.203125 31.300781 L 37.296875 31.558594 L 37.394531 31.820312 L 37.164062 31.675781 L 36.933594 31.535156 L 37.0625 31.878906 L 37.195312 32.222656 L 36.820312 31.988281 L 36.375 33.699219 L 36.28125 34.027344 L 36.1875 34.351562 L 36.527344 34.484375 L 36.867188 34.613281 L 37.042969 34.355469 L 37.214844 34.101562 L 37.863281 32.898438 L 38.28125 32.308594 L 38.699219 31.714844 L 39.652344 30.699219 L 39.488281 31 L 39.328125 31.300781 L 40.242188 30.464844 L 41.160156 29.628906 L 41.988281 29.207031 L 42.8125 28.785156 L 43.308594 28.597656 L 43.800781 28.410156 L 43.800781 28.546875 L 42.992188 29.082031 L 42.1875 29.613281 L 42.324219 29.839844 L 42.460938 30.0625 L 42.230469 29.917969 L 42 29.777344 L 42 30.222656 L 41.832031 30.121094 L 41.664062 30.015625 L 40.257812 31.5 L 40.128906 31.863281 L 40.003906 32.226562 L 39.75 32.082031 L 39.5 31.9375 L 39.640625 32.09375 L 39.785156 32.25 L 39.492188 32.8125 L 39.203125 33.375 L 38.953125 33.527344 L 38.699219 33.675781 L 39 33.289062 L 39.300781 32.898438 L 38.949219 33.175781 L 38.601562 33.449219 L 38.601562 34.199219 L 38.226562 34.199219 L 38.074219 34.648438 L 37.917969 35.101562 L 37.90625 35.199219 L 37.898438 35.300781 L 37.148438 36.871094 L 36.878906 37.984375 L 36.613281 39.101562 L 36.605469 40.808594 L 36.601562 42.519531 L 36.8125 42.734375 L 37.027344 42.945312 L 38.261719 42.621094 L 39.5 42.292969 L 39.75 42.136719 L 40 41.976562 L 40.003906 40.9375 L 40.003906 39.898438 L 40.285156 38.976562 L 40.566406 38.050781 L 40.980469 37.238281 L 41.398438 36.421875 L 41.015625 36.1875 L 41.125 35.910156 L 41.230469 35.632812 L 41.011719 35.21875 L 40.789062 34.808594 L 40.910156 34.328125 L 41.03125 33.851562 L 41.472656 33.648438 L 41.917969 33.445312 L 43.058594 33.570312 L 43.347656 34.039062 L 43.972656 33.714844 L 44.601562 33.390625 L 44.601562 33.175781 L 44.367188 33.320312 L 44.136719 33.460938 L 44.425781 32.992188 L 44.589844 33.09375 L 44.75 33.191406 L 46.898438 32.558594 L 47.398438 32.152344 L 47.398438 32.382812 L 52.101562 30.765625 L 52.417969 30.484375 L 52.730469 30.199219 L 52.949219 30.417969 L 54.226562 29.550781 L 55.5 28.683594 L 56.347656 27.429688 L 57.191406 26.175781 L 57.523438 25.136719 L 57.851562 24.101562 L 58.046875 18.601562 L 57.617188 18.601562 L 57.257812 19.136719 M 56.800781 33.949219 L 56.800781 39.300781 L 57.058594 44.316406 L 58.941406 44.960938 L 60.828125 45.605469 L 61.019531 45.488281 L 61.214844 45.367188 L 61.191406 38.445312 L 61.171875 31.519531 L 60.984375 31.171875 L 60.800781 30.824219 L 59.09375 29.710938 L 57.386719 28.601562 L 56.800781 28.601562 L 56.800781 33.949219 M 51.308594 37.445312 L 51.421875 42.289062 L 51.898438 42.601562 L 52.636719 42.828125 L 53.371094 43.054688 L 53.683594 42.933594 L 54 42.8125 L 54 34.910156 L 52.855469 33.753906 L 51.710938 32.601562 L 51.195312 32.601562 L 51.308594 37.445312 M 44.878906 37.664062 L 43.5 38.511719 L 43.445312 41.53125 L 43.390625 44.554688 L 43.707031 44.675781 L 44.027344 44.796875 L 45.3125 44.554688 L 46.601562 44.308594 L 46.601562 37.023438 L 46.429688 36.917969 L 46.261719 36.8125 L 44.878906 37.664062 M 63.535156 39.75 L 63.445312 39.898438 L 63.386719 41.5 L 63.324219 43.101562 L 63.363281 44.820312 L 63.398438 46.539062 L 64.195312 46.898438 L 64.988281 47.253906 L 65.324219 47.628906 L 65.660156 48 L 66 48 L 66 41.230469 L 65.335938 40.566406 L 64.570312 40.082031 L 63.808594 39.601562 L 63.625 39.601562 L 63.535156 39.75 M 47.675781 43.691406 L 46.5 45.214844 L 46.496094 45.359375 L 46.488281 45.5 L 46.195312 46.148438 L 45.902344 46.800781 L 45.550781 46.800781 L 46.058594 47.410156 L 45.746094 47.699219 L 45.660156 47.460938 L 45.574219 47.226562 L 44.800781 48 L 44.300781 48.023438 L 43.136719 49.5625 L 41.976562 51.101562 L 40.183594 53.398438 L 38.386719 55.699219 L 36.144531 58.542969 L 33.898438 61.386719 L 32.8125 61.628906 L 30.757812 61.898438 L 28.699219 62.167969 L 28.371094 61.847656 L 27.335938 62.203125 L 26.300781 62.554688 L 24.222656 62.8125 L 22.148438 63.070312 L 22.625 63.25 L 23.101562 63.425781 L 29.199219 63.21875 L 35.300781 63.011719 L 35.699219 62.472656 L 36.101562 61.9375 L 37.582031 59.917969 L 39.066406 57.898438 L 40.441406 56.101562 L 44.847656 50.234375 L 46.300781 50.445312 L 45.851562 50.109375 L 45.398438 49.777344 L 45.398438 49 L 46.269531 49 L 46.941406 49.609375 L 47.222656 49.265625 L 47.5 48.921875 L 47.257812 49.066406 L 47.019531 49.210938 L 46.507812 48.769531 L 46 48.328125 L 46 47.972656 L 46.375 48.09375 L 46.753906 48.210938 L 46.867188 47.753906 L 46.984375 47.292969 L 47.800781 46.195312 L 48.621094 45.101562 L 49.09375 45.101562 L 51.195312 48.226562 L 53.300781 51.355469 L 54.671875 53.371094 L 56.046875 55.386719 L 56.304688 55.605469 L 56.566406 55.820312 L 59.152344 52.359375 L 61.734375 48.898438 L 62.390625 48.359375 L 64.578125 49.480469 L 66.765625 50.597656 L 66.71875 50.277344 L 66.667969 49.953125 L 65.707031 48.785156 L 64.742188 47.621094 L 64.421875 47.488281 L 64.101562 47.351562 L 58.5 45.429688 L 54.101562 43.890625 L 49.699219 42.351562 L 49.273438 42.257812 L 48.851562 42.164062 L 47.675781 43.691406 M 37.742188 43.550781 L 36.800781 44.066406 L 36.800781 44.726562 L 37.121094 45.8125 L 37.4375 46.898438 L 38.820312 49.539062 L 39.824219 50.671875 L 40.832031 51.800781 L 41.1875 51.800781 L 42.007812 50.714844 L 42.828125 49.625 L 42.582031 49.164062 L 42.335938 48.699219 L 41.667969 47.730469 L 41.003906 46.761719 L 40.597656 45.445312 L 40.191406 44.132812 L 39.960938 43.851562 L 39.730469 43.574219 L 39.207031 43.304688 L 38.683594 43.03125 L 37.742188 43.550781 M 62.113281 50.050781 L 61.609375 50.699219 L 59.167969 54 L 56.730469 57.300781 L 52.777344 62.605469 L 52.902344 62.800781 L 53.023438 63 L 54.738281 63 L 55.074219 62.628906 L 55.414062 62.253906 L 59.578125 56.300781 L 60.09375 55.300781 L 60.496094 54.707031 L 60.898438 54.109375 L 61.144531 53.847656 L 61.390625 53.582031 L 62.015625 52.300781 L 62.429688 51.800781 L 62.847656 51.300781 L 63.140625 51.699219 L 63.4375 52.101562 L 69.757812 61.898438 L 70.5 62.796875 L 74.074219 62.816406 L 77.648438 62.832031 L 77.847656 62.632812 L 78.046875 62.429688 L 73.707031 57.265625 L 69.363281 52.101562 L 69.046875 51.921875 L 68.734375 51.742188 L 62.960938 49.398438 L 62.617188 49.398438 L 62.113281 50.050781 M 25.199219 78.1875 L 23.699219 78.300781 L 23.578125 79.699219 L 23.457031 81.101562 L 23.644531 81.601562 L 26.769531 81.601562 L 27.398438 80.972656 L 27.398438 80.601562 L 26.050781 80.566406 L 24.699219 80.53125 L 25.597656 80.453125 L 26.5 80.371094 L 26.84375 80.058594 L 27.191406 79.746094 L 27.082031 79.574219 L 26.976562 79.398438 L 25.839844 79.363281 L 24.699219 79.324219 L 25.726562 79.253906 L 26.753906 79.179688 L 27.121094 78.777344 L 27.484375 78.375 L 26.898438 78.007812 L 26.800781 78.039062 L 26.699219 78.070312 L 25.199219 78.1875 M 29.886719 78.152344 L 29.671875 78.300781 L 27.601562 81.058594 L 27.601562 81.601562 L 28.5 81.59375 L 28.710938 81.445312 L 28.921875 81.300781 L 29.503906 80.5 L 30.082031 79.699219 L 30.144531 79.613281 L 30.203125 79.527344 L 30.789062 80.300781 L 30.792969 80.449219 L 30.800781 80.601562 L 29.613281 80.601562 L 29.199219 81.375 L 29.199219 81.601562 L 32.578125 81.601562 L 32.710938 81.382812 L 32.847656 81.164062 L 31.898438 79.773438 L 30.949219 78.386719 L 30.585938 78.191406 L 30.226562 78 L 30.101562 78.007812 L 29.886719 78.152344 M 15.582031 78.457031 L 15.265625 78.699219 L 15.019531 79.160156 L 14.773438 79.625 L 15.039062 80.828125 L 15.667969 81.214844 L 16.300781 81.597656 L 17.4375 81.597656 L 18.570312 81.601562 L 19.226562 80.945312 L 19.0625 80.792969 L 18.898438 80.644531 L 16.367188 80.472656 L 16.199219 80.195312 L 16.027344 79.921875 L 16.222656 79.5625 L 16.414062 79.199219 L 18.539062 79.199219 L 18.867188 78.835938 L 19.199219 78.46875 L 19.199219 78.199219 L 17.550781 78.207031 L 15.898438 78.210938 L 15.582031 78.457031 M 19.601562 79.886719 L 19.601562 81.601562 L 22.570312 81.601562 L 23.203125 80.96875 L 22.976562 80.601562 L 20.820312 80.601562 L 20.761719 79.449219 L 20.699219 78.300781 L 20.148438 78.238281 L 19.601562 78.171875 L 19.601562 79.886719 M 33.296875 79.050781 L 33.167969 79.898438 L 33.300781 81.5 L 34.300781 81.5 L 34.425781 80 L 34.5625 80.003906 L 34.699219 80.011719 L 36.457031 81.621094 L 36.878906 81.558594 L 37.300781 81.5 L 37.359375 79.851562 L 37.417969 78.199219 L 36.441406 78.199219 L 36.199219 78.832031 L 36.199219 79.824219 L 35.238281 79.011719 L 34.273438 78.199219 L 33.425781 78.199219 L 33.296875 79.050781 M 39.601562 79.914062 L 39.601562 81.628906 L 40.050781 81.5625 L 40.5 81.5 L 40.625 80 L 40.875 80 L 42.773438 81.601562 L 43.386719 81.601562 L 43.601562 81.195312 L 43.820312 80.789062 L 43.757812 79.546875 L 43.699219 78.300781 L 43.148438 78.238281 L 42.601562 78.171875 L 42.601562 79.800781 L 42.34375 79.800781 L 40.609375 78.199219 L 39.601562 78.199219 L 39.601562 79.914062 M 44.777344 78.402344 L 44.453125 78.589844 L 43.953125 79.792969 L 44.082031 80.300781 L 44.210938 80.8125 L 44.855469 81.207031 L 45.5 81.597656 L 46.929688 81.597656 L 48.355469 81.601562 L 48.480469 81.285156 L 48.601562 80.96875 L 48.601562 79.878906 L 48.359375 79.640625 L 48.121094 79.398438 L 46.574219 79.398438 L 45.800781 79.8125 L 45.800781 80.199219 L 47.175781 80.199219 L 47.300781 80.398438 L 47.421875 80.601562 L 45.875 80.601562 L 45.101562 80.023438 L 45.320312 79.660156 L 45.542969 79.300781 L 46.777344 79.199219 L 48.015625 79.101562 L 48.203125 78.800781 L 48.394531 78.5 L 48.398438 78.351562 L 48.398438 78.199219 L 46.75 78.207031 L 45.101562 78.210938 L 44.777344 78.402344 M 51.132812 78.566406 L 50.800781 78.929688 L 50.800781 79.570312 L 51.113281 79.886719 L 51.429688 80.199219 L 53.777344 80.199219 L 53.898438 80.398438 L 54.023438 80.601562 L 51.480469 80.601562 L 51.238281 80.839844 L 51 81.078125 L 51 81.601562 L 54.511719 81.601562 L 54.957031 81.289062 L 55.398438 80.976562 L 55.398438 80.078125 L 54.921875 79.601562 L 52.5 79.59375 L 52.199219 79.398438 L 51.898438 79.207031 L 54.539062 79.199219 L 54.867188 78.835938 L 55.199219 78.46875 L 55.199219 78.199219 L 51.460938 78.199219 L 51.132812 78.566406 M 55.742188 78.351562 L 55.65625 78.5 L 55.617188 79.660156 L 55.578125 80.816406 L 55.703125 81.210938 L 55.828125 81.601562 L 59.121094 81.601562 L 59.359375 81.359375 L 59.601562 81.121094 L 59.601562 80.601562 L 58.25 80.570312 L 56.898438 80.542969 L 59.023438 80.285156 L 59.199219 80.003906 L 59.375 79.71875 L 59.273438 79.558594 L 59.175781 79.398438 L 58.039062 79.363281 L 56.898438 79.328125 L 57.898438 79.25 L 58.898438 79.175781 L 59.25 78.855469 L 59.601562 78.539062 L 59.601562 78.199219 L 55.824219 78.199219 L 55.742188 78.351562 M 60.441406 78.441406 L 60.199219 78.679688 L 60.199219 79.199219 L 63.433594 79.199219 L 63.269531 79.699219 L 61.632812 79.757812 L 60 79.816406 L 60 81.601562 L 60.785156 81.601562 L 61 81.199219 L 61.214844 80.800781 L 62.710938 80.800781 L 63.054688 81.199219 L 63.394531 81.601562 L 64.332031 81.601562 L 64.601562 81.332031 L 64.28125 80.976562 L 63.960938 80.625 L 64.601562 79.710938 L 64.601562 78.824219 L 63.710938 78.199219 L 60.679688 78.199219 L 60.441406 78.441406 M 64.746094 78.320312 L 64.628906 78.4375 L 65.300781 79.515625 L 65.980469 80.453125 L 66.664062 81.394531 L 67.027344 81.507812 L 67.390625 81.625 L 68.007812 81.28125 L 69.003906 79.894531 L 70 78.511719 L 70 78.199219 L 68.808594 78.199219 L 67.300781 80.222656 L 66.699219 79.316406 L 66.230469 78.757812 L 65.765625 78.199219 L 64.867188 78.199219 L 64.746094 78.320312 M 72.527344 78.691406 L 72 79.179688 L 72 80.378906 L 72.472656 80.925781 L 72.945312 81.476562 L 75.617188 81.648438 L 76.398438 80.9375 L 76.398438 80.644531 L 75.003906 80.566406 L 73.605469 80.488281 L 73.359375 80.238281 L 73.109375 79.988281 L 73.324219 79.644531 L 73.542969 79.300781 L 74.617188 79.238281 L 75.695312 79.175781 L 76.046875 78.855469 L 76.398438 78.539062 L 76.398438 78.199219 L 73.058594 78.199219 L 72.527344 78.691406 M 76.726562 78.648438 L 76.605469 79.101562 L 76.601562 80.035156 L 76.601562 80.96875 L 76.84375 81.601562 L 80.1875 81.601562 L 80.601562 80.828125 L 80.601562 80.601562 L 77.976562 80.601562 L 78.078125 80.433594 L 78.183594 80.265625 L 78.808594 80.359375 L 79.433594 80.449219 L 79.917969 80.191406 L 80.398438 79.933594 L 80.398438 79.398438 L 77.898438 79.328125 L 78.898438 79.25 L 79.898438 79.175781 L 80.25 78.855469 L 80.601562 78.539062 L 80.601562 78.199219 L 76.847656 78.199219 L 76.726562 78.648438 M 81.238281 78.441406 L 81 78.679688 L 81 80 L 81.101562 80.023438 L 82.601562 80.289062 L 84.101562 80.550781 L 82.9375 80.574219 L 81.773438 80.601562 L 81 81.015625 L 81 81.601562 L 84.511719 81.601562 L 84.957031 81.289062 L 85.398438 80.976562 L 85.398438 79.808594 L 84.5 79.589844 L 83.300781 79.417969 L 82.101562 79.25 L 83.320312 79.222656 L 84.539062 79.199219 L 84.871094 78.832031 L 85.199219 78.46875 L 85.066406 78.332031 L 84.933594 78.199219 L 81.480469 78.199219 L 81.238281 78.441406 "/>
<path style=" stroke:none;fill-rule:evenodd;fill:rgb(80.784314%,75.294118%,47.45098%);fill-opacity:1;" d="M 55.042969 29.855469 L 54 30.914062 L 54 43.378906 L 55.097656 43.726562 L 56.195312 44.070312 L 56.445312 43.820312 L 56.449219 36.367188 L 56.453125 28.917969 L 56.269531 28.855469 L 56.089844 28.796875 L 55.042969 29.855469 M 48.851562 33.695312 L 47 35.019531 L 47 43 L 47.375 43 L 47.9375 42.203125 L 48.5 41.410156 L 48.761719 41.402344 L 49.019531 41.398438 L 49.558594 41.675781 L 50.101562 41.949219 L 50.550781 42.089844 L 51 42.226562 L 50.953125 33.5 L 50.828125 32.933594 L 50.699219 32.371094 L 48.851562 33.695312 M 61.453125 40.449219 L 61.5 45.695312 L 62.898438 46.359375 L 63.050781 46.269531 L 63.199219 46.175781 L 63.199219 38.972656 L 63.601562 39.101562 L 64 39.226562 L 63.992188 36.5 L 62.878906 35.851562 L 61.769531 35.199219 L 61.40625 35.199219 L 61.453125 40.449219 M 30.75 39.214844 L 30.398438 39.417969 L 30.398438 41.800781 L 30 41.800781 L 30 42.15625 L 30.324219 42.28125 L 30.652344 42.40625 L 30.933594 42.171875 L 31.21875 41.9375 L 31.40625 42.125 L 31.59375 42.316406 L 31 43.035156 L 30.40625 43.757812 L 30.203125 44.289062 L 30 44.824219 L 29.800781 44.699219 L 29.597656 44.574219 L 28.902344 44.828125 L 28.203125 45.078125 L 27.613281 44.511719 L 27.023438 43.949219 L 26.402344 44.570312 L 26.34375 44.964844 L 26.28125 45.359375 L 26.039062 45.65625 L 25.792969 45.949219 L 26.398438 46.070312 L 27 46.191406 L 26.992188 46.34375 L 26.984375 46.5 L 26.007812 47.25 L 25.03125 48.003906 L 24.417969 48.125 L 23.800781 48.25 L 23.800781 48.933594 L 24.449219 49.683594 L 25.101562 50.4375 L 26.199219 51.082031 L 27.300781 51.726562 L 27.359375 52.339844 L 27.421875 52.953125 L 26 55.632812 L 26 56.875 L 26.324219 58.171875 L 26.652344 59.472656 L 26.425781 59.832031 L 26.199219 60.195312 L 26.199219 61.980469 L 27.566406 62.238281 L 27.921875 62.039062 L 28.273438 61.84375 L 28.632812 62.066406 L 28.988281 62.289062 L 29.378906 61.898438 L 28.964844 59.800781 L 28.554688 57.699219 L 28.96875 54.496094 L 29.59375 52.699219 L 29.597656 52.1875 L 29.601562 51.671875 L 30.578125 50.820312 L 30.277344 50.21875 L 29.980469 49.617188 L 30.113281 48.890625 L 30.25 48.164062 L 32.226562 45.898438 L 32.703125 45.738281 L 33.179688 45.574219 L 33.296875 45.207031 L 33.414062 44.84375 L 33.855469 44.722656 L 34.300781 44.605469 L 35.03125 44.601562 L 35.765625 44.601562 L 37.25 43.8125 L 38.738281 43.027344 L 39.417969 43.449219 L 40.101562 43.875 L 40.914062 43.78125 L 41.765625 44.398438 L 42.613281 45.011719 L 43.355469 46.230469 L 43.597656 47.746094 L 43.847656 47.957031 L 44.101562 48.164062 L 44.75 47.894531 L 45.398438 47.621094 L 45.402344 47.359375 L 45.40625 47.101562 L 45.59375 47.394531 L 45.777344 47.6875 L 45.917969 47.550781 L 46.058594 47.410156 L 45.550781 46.800781 L 45.726562 46.796875 L 45.898438 46.796875 L 46.167969 46.25 L 46.4375 45.699219 L 46.640625 44.339844 L 45.671875 44.503906 L 44.699219 44.671875 L 42.761719 44.601562 L 42.132812 44.15625 L 41.5 43.710938 L 41.113281 43.355469 L 40.722656 43 L 40.398438 43 L 40.03125 42.628906 L 39.660156 42.261719 L 38.328125 42.605469 L 36.996094 42.953125 L 36.882812 42.773438 L 36.769531 42.589844 L 36.402344 43.046875 L 36.035156 43.5 L 34.914062 43.488281 L 33.792969 43.480469 L 33.445312 43.117188 L 33.101562 42.757812 L 33.53125 42.886719 L 33.964844 43.015625 L 34.195312 42.3125 L 34.429688 41.609375 L 34.292969 41.390625 L 34.160156 41.175781 L 34.832031 40.433594 L 34.417969 40.015625 L 34 39.601562 L 32.5 39.585938 L 31.5 39.015625 L 31.300781 39.011719 L 31.101562 39.011719 L 30.75 39.214844 M 47.789062 46.859375 L 46.878906 48.101562 L 46.4375 48.050781 L 46 48.003906 L 46 48.328125 L 46.519531 48.777344 L 47.035156 49.230469 L 47.214844 49.050781 L 48.746094 46.996094 L 51.210938 50.097656 L 53.671875 53.195312 L 53.808594 53.058594 L 52.582031 51.078125 L 51.355469 49.101562 L 50.226562 47.351562 L 49.101562 45.605469 L 48.898438 45.613281 L 48.699219 45.617188 L 47.789062 46.859375 M 45.398438 49.386719 L 45.398438 49.777344 L 45.84375 50.089844 L 46.289062 50.398438 L 45.695312 50.410156 L 45.101562 50.417969 L 38.898438 58.847656 L 37.449219 60.820312 L 36 62.796875 L 36 63 L 38.398438 63 L 38.398438 61.773438 L 38.628906 61.335938 L 38.855469 60.898438 L 40.789062 58.199219 L 42.726562 55.5 L 44.613281 52.832031 L 46.5 50.167969 L 46.6875 49.902344 L 46.875 49.632812 L 46.351562 49 L 45.398438 49 L 45.398438 49.386719 M 48.921875 50.964844 L 48.820312 51.128906 L 48.816406 53.175781 L 48.816406 55.222656 L 49.65625 55.160156 L 50.5 55.101562 L 50.558594 53.324219 L 50.617188 51.550781 L 49.9375 50.800781 L 49.023438 50.800781 L 48.921875 50.964844 M 47.175781 51.328125 L 46.90625 51.652344 L 46.839844 53.507812 L 46.773438 55.359375 L 46.9375 55.453125 L 47.101562 55.542969 L 47.84375 55.449219 L 48.585938 55.359375 L 48.585938 53.179688 L 48.582031 51 L 47.449219 51 L 47.175781 51.328125 M 61.945312 52.75 L 61.257812 53.699219 L 59.796875 55.898438 L 58.335938 58.101562 L 56.933594 60.101562 L 55.527344 62.101562 L 55.117188 62.5625 L 54.703125 63.027344 L 55.589844 62.964844 L 56.472656 62.898438 L 56.617188 62.355469 L 56.761719 61.808594 L 62.652344 53.199219 L 62.769531 53.199219 L 64.613281 55.648438 L 66.457031 58.101562 L 66.847656 58.5 L 66.601562 58 L 66.351562 57.5 L 64.636719 54.648438 L 62.921875 51.800781 L 62.632812 51.800781 L 61.945312 52.75 M 61.710938 56.464844 L 61.433594 56.898438 L 61.417969 58.273438 L 61.402344 59.644531 L 62.753906 59.503906 L 64.101562 59.359375 L 64.25 59.269531 L 64.398438 59.175781 L 64.398438 56.449219 L 63.898438 56.035156 L 61.988281 56.035156 L 61.710938 56.464844 M 61.652344 65.628906 L 61 65.8125 L 59.933594 67.253906 L 58.867188 68.699219 L 54.875 74.300781 L 54.121094 75.347656 L 53.363281 76.398438 L 53.648438 76.507812 L 53.929688 76.617188 L 55.703125 76.558594 L 57.472656 76.5 L 61.230469 71.101562 L 61.878906 70.316406 L 62.523438 69.535156 L 63.855469 71.515625 L 65.191406 73.5 L 63.011719 73.601562 L 60.832031 73.699219 L 60.582031 73.949219 L 59.792969 75.011719 L 59 76.070312 L 59 76.601562 L 71.398438 76.601562 L 71.398438 76.253906 L 71.03125 75.777344 L 70.660156 75.300781 L 68.769531 72.601562 L 66.882812 69.898438 L 65.5625 67.996094 L 64.242188 66.089844 L 63.773438 65.859375 L 63.300781 65.632812 L 62.300781 65.445312 L 61.652344 65.628906 M 16.652344 66.050781 L 16.234375 66.5 L 15.433594 69.199219 L 14.628906 71.898438 L 14.015625 73.945312 L 13.398438 75.988281 L 13.398438 76.617188 L 15.035156 76.558594 L 16.667969 76.5 L 16.8125 76 L 16.960938 75.5 L 17.589844 73.101562 L 18.21875 70.699219 L 18.421875 70.105469 L 20.046875 73.164062 L 21.667969 76.222656 L 22.007812 76.40625 L 22.351562 76.585938 L 23.945312 76.84375 L 24.550781 76.269531 L 25.160156 75.699219 L 26.503906 73.101562 L 27.851562 70.5 L 28.171875 70.148438 L 28.371094 70.925781 L 28.574219 71.699219 L 29.21875 74.148438 L 29.863281 76.601562 L 33.199219 76.601562 L 33.199219 76.03125 L 32.523438 73.867188 L 31.84375 71.699219 L 30.523438 66.699219 L 29.976562 66.148438 L 29.429688 65.601562 L 27.675781 65.601562 L 27.167969 66.148438 L 26.660156 66.699219 L 26.007812 67.898438 L 25.351562 69.101562 L 24.460938 70.746094 L 23.570312 72.394531 L 23.398438 72.5 L 23.230469 72.605469 L 22.386719 71.050781 L 21.542969 69.5 L 20.542969 67.742188 L 19.539062 65.980469 L 19.183594 65.789062 L 18.828125 65.601562 L 17.070312 65.601562 L 16.652344 66.050781 M 35 65.777344 L 34.5 65.917969 L 34.5 76.5 L 37.898438 76.5 L 37.839844 71.214844 L 37.777344 65.929688 L 37.679688 65.765625 L 37.578125 65.601562 L 35.5 65.640625 L 35 65.777344 M 40.410156 65.988281 L 40.023438 66.378906 L 39.78125 67.699219 L 39.839844 72.101562 L 39.898438 76.5 L 41.445312 76.558594 L 42.988281 76.617188 L 43.042969 73.507812 L 43.101562 70.398438 L 46.554688 73.476562 L 50.011719 76.554688 L 50.554688 76.660156 L 51.101562 76.761719 L 51.75 76.492188 L 52.402344 76.21875 L 52.808594 75.15625 L 52.753906 70.425781 L 52.699219 65.699219 L 49.699219 65.699219 L 49.601562 68.761719 L 49.5 71.820312 L 46.03125 68.710938 L 42.558594 65.601562 L 40.800781 65.601562 L 40.410156 65.988281 M 75.101562 65.878906 L 74.101562 66.121094 L 73.539062 66.492188 L 72.980469 66.859375 L 72.660156 67.472656 L 72.34375 68.089844 L 72.328125 69.140625 L 72.3125 70.1875 L 72.71875 70.742188 L 73.125 71.300781 L 74.003906 71.75 L 74.886719 72.199219 L 82.722656 72.199219 L 83.113281 72.488281 L 83.5 72.777344 L 83.277344 73.136719 L 83.058594 73.5 L 78.53125 73.601562 L 74.007812 73.699219 L 73.421875 74.535156 L 72 76.238281 L 72 76.632812 L 83.898438 76.5 L 84.84375 76.035156 L 85.785156 75.570312 L 86.191406 74.914062 L 86.601562 74.253906 L 86.601562 71.980469 L 86.308594 71.417969 L 86.019531 70.859375 L 84.027344 70 L 76.230469 70 L 75.914062 69.6875 L 75.601562 69.371094 L 75.601562 69.015625 L 76.375 68.601562 L 84.183594 68.601562 L 85.191406 67.351562 L 86.199219 66.105469 L 86.199219 65.601562 L 81.148438 65.617188 L 76.101562 65.632812 L 75.101562 65.878906 "/>
</g>
</svg>
