<svg xmlns="http://www.w3.org/2000/svg" width="500" height="500" viewBox="0 0 500 500" version="1.1"><path d="M 286.297 95.684 L 284.500 98.368 280.808 102.089 L 277.115 105.810 269.308 108.805 L 261.500 111.800 245.758 115.885 L 230.016 119.969 222.113 123.017 L 214.211 126.064 208.356 129.852 L 202.500 133.640 197.755 138.923 L 193.009 144.206 193.564 145.103 L 194.118 146 193.079 146 L 192.040 146 189.024 151.250 L 186.008 156.500 186.493 157.802 L 186.977 159.104 185.819 158.388 L 184.660 157.672 185.319 159.388 L 185.977 161.104 185.035 160.522 L 184.093 159.940 182.987 164.220 L 181.881 168.500 181.411 170.132 L 180.940 171.763 182.640 172.415 L 184.340 173.068 185.207 171.784 L 186.073 170.500 187.692 167.500 L 189.310 164.500 191.405 161.536 L 193.500 158.572 195.877 156.036 L 198.253 153.500 197.444 155 L 196.635 156.500 201.218 152.321 L 205.801 148.142 209.935 146.033 L 214.068 143.925 216.534 142.987 L 219 142.050 219 142.392 L 219 142.734 214.964 145.405 L 210.929 148.076 211.619 149.192 L 212.309 150.309 211.155 149.595 L 210 148.882 210 150 L 210 151.118 209.163 150.600 L 208.325 150.083 204.806 153.791 L 201.286 157.500 200.650 159.313 L 200.014 161.127 198.757 160.403 L 197.500 159.679 198.210 160.466 L 198.920 161.254 197.467 164.063 L 196.014 166.873 194.757 167.629 L 193.500 168.384 195 166.442 L 196.500 164.500 194.750 165.872 L 193 167.245 193 169.122 L 193 171 192.067 171 L 191.135 171 190.367 173.250 L 189.598 175.500 189.541 176 L 189.484 176.500 187.610 180.429 L 185.736 184.358 184.404 189.929 L 183.071 195.500 183.036 204.050 L 183 212.600 184.064 213.664 L 185.128 214.728 191.314 213.101 L 197.500 211.473 198.750 210.678 L 200 209.882 200.011 204.691 L 200.022 199.500 201.423 194.881 L 202.825 190.263 204.905 186.186 L 206.985 182.109 206.036 181.522 L 205.087 180.936 205.621 179.546 L 206.154 178.156 205.053 176.099 L 203.952 174.041 204.553 171.646 L 205.154 169.251 207.372 168.240 L 209.589 167.230 212.441 167.543 L 215.293 167.856 216.014 169.022 L 216.735 170.189 219.867 168.569 L 223 166.949 223 166.415 L 223 165.882 221.845 166.595 L 220.691 167.309 221.415 166.138 L 222.138 164.967 222.946 165.466 L 223.753 165.965 229.127 164.381 L 234.500 162.796 235.750 161.776 L 237 160.755 237 161.339 L 237 161.923 248.750 157.879 L 260.500 153.834 262.081 152.415 L 263.662 150.996 264.206 151.539 L 264.750 152.083 271.125 147.753 L 277.500 143.423 281.729 137.153 L 285.957 130.882 287.611 125.691 L 289.265 120.500 289.746 106.750 L 290.227 93 289.160 93 L 288.093 93 286.297 95.684 M 284.004 169.750 L 284.008 196.500 284.648 209.045 L 285.288 221.590 294.710 224.814 L 304.131 228.037 305.099 227.439 L 306.067 226.840 305.960 192.217 L 305.853 157.594 304.924 155.859 L 303.996 154.123 295.463 148.562 L 286.931 143 285.466 143 L 284 143 284.004 169.750 M 256.538 187.223 L 257.103 211.446 258.301 212.226 L 259.500 213.007 263.175 214.139 L 266.850 215.272 268.425 214.667 L 270 214.063 270 194.310 L 270 174.558 264.281 168.779 L 258.563 163 257.268 163 L 255.974 163 256.538 187.223 M 224.404 188.312 L 217.500 192.552 217.225 207.659 L 216.949 222.767 218.538 223.376 L 220.127 223.986 226.563 222.765 L 233 221.544 233 203.331 L 233 185.118 232.154 184.595 L 231.308 184.072 224.404 188.312 M 317.672 198.750 L 317.226 199.500 316.926 207.500 L 316.627 215.500 316.813 224.098 L 317 232.696 320.970 234.487 L 324.941 236.277 326.625 238.139 L 328.310 240 329.155 240 L 330 240 330 223.071 L 330 206.143 328.340 204.483 L 326.681 202.823 322.860 200.412 L 319.040 198 318.579 198 L 318.118 198 317.672 198.750 M 238.376 218.448 L 232.500 226.082 232.475 226.791 L 232.449 227.500 230.981 230.750 L 229.512 234 228.633 234 L 227.755 234 229.020 235.524 L 230.285 237.048 229.506 237.774 L 228.726 238.500 228.301 237.313 L 227.875 236.125 225.938 238.063 L 224 240 222.750 240.060 L 221.500 240.119 215.690 247.810 L 209.880 255.500 200.909 267 L 191.937 278.500 180.719 292.713 L 169.500 306.925 166.786 307.534 L 164.072 308.143 153.786 309.494 L 143.500 310.846 142.674 310.047 L 141.847 309.247 136.674 311.013 L 131.500 312.780 121.118 314.069 L 110.737 315.358 113.118 316.243 L 115.500 317.127 146 316.089 L 176.500 315.051 178.500 312.366 L 180.500 309.682 187.916 299.591 L 195.331 289.500 198.768 285 L 202.204 280.500 213.223 265.833 L 224.242 251.165 227.871 251.692 L 231.500 252.219 229.250 250.553 L 227 248.887 227 246.943 L 227 245 229.171 245 L 231.343 245 233.028 246.525 L 234.713 248.050 236.107 246.333 L 237.500 244.616 236.294 245.340 L 235.088 246.063 232.544 243.851 L 230 241.639 230 240.752 L 230 239.865 231.884 240.463 L 233.768 241.061 234.344 238.764 L 234.921 236.467 239.012 230.984 L 243.104 225.500 244.286 225.500 L 245.468 225.500 255.984 241.137 L 266.500 256.774 273.362 266.858 L 280.225 276.942 281.527 278.022 L 282.828 279.102 295.752 261.801 L 308.676 244.500 310.311 243.150 L 311.945 241.801 322.883 247.396 L 333.822 252.991 333.585 251.379 L 333.349 249.767 328.529 243.935 L 323.710 238.103 322.105 237.434 L 320.500 236.765 306.500 231.955 L 292.500 227.145 270.500 219.455 L 248.500 211.764 246.376 211.290 L 244.252 210.815 238.376 218.448 M 188.705 217.749 L 184 220.336 184 221.987 L 184 223.637 185.596 229.068 L 187.193 234.500 190.643 241.102 L 194.092 247.704 199.126 253.352 L 204.160 259 205.048 259 L 205.935 259 210.038 253.566 L 214.141 248.132 212.908 245.816 L 211.675 243.500 208.347 238.652 L 205.020 233.805 202.989 227.230 L 200.958 220.655 199.802 219.262 L 198.646 217.868 196.028 216.515 L 193.411 215.161 188.705 217.749 M 310.563 250.250 L 308.041 253.500 295.844 270 L 283.647 286.500 273.771 299.761 L 263.895 313.022 264.507 314.011 L 265.118 315 269.404 315 L 273.690 315 275.378 313.135 L 277.065 311.270 287.482 296.385 L 297.898 281.500 299.185 279 L 300.471 276.500 302.486 273.527 L 304.500 270.554 305.725 269.230 L 306.950 267.907 308.510 264.703 L 310.070 261.500 312.149 259 L 314.229 256.500 315.712 258.500 L 317.195 260.500 332.989 285 L 348.782 309.500 350.641 311.746 L 352.500 313.991 370.368 314.078 L 388.236 314.164 389.239 313.161 L 390.242 312.158 368.529 286.329 L 346.816 260.500 345.243 259.608 L 343.670 258.716 329.232 252.858 L 314.795 247 313.940 247 L 313.085 247 310.563 250.250 M 126 390.930 L 118.500 391.500 117.889 398.500 L 117.279 405.500 117.746 406.750 L 118.214 408 126.036 408 L 133.857 408 135.429 406.429 L 137 404.857 137 403.929 L 137 403 130.250 402.825 L 123.500 402.651 127.998 402.256 L 132.496 401.861 134.225 400.297 L 135.953 398.733 135.417 397.866 L 134.882 397 129.191 396.815 L 123.500 396.630 128.639 396.267 L 133.778 395.903 135.599 393.891 L 137.420 391.878 135.960 390.954 L 134.500 390.031 134 390.195 L 133.500 390.360 126 390.930 M 149.434 390.765 L 148.368 391.500 143.184 398.399 L 138 405.298 138 406.649 L 138 408 140.250 407.985 L 142.500 407.969 143.553 407.235 L 144.606 406.500 147.512 402.500 L 150.419 398.500 150.720 398.073 L 151.021 397.646 152.479 399.573 L 153.936 401.500 153.968 402.250 L 154 403 151.035 403 L 148.070 403 147.035 404.934 L 146 406.869 146 407.434 L 146 408 154.441 408 L 162.882 408 163.556 406.910 L 164.230 405.819 159.485 398.875 L 154.740 391.931 152.936 390.966 L 151.131 390 150.816 390.015 L 150.500 390.031 149.434 390.765 M 77.913 392.282 L 76.327 393.500 75.097 395.809 L 73.867 398.117 74.529 401.131 L 75.191 404.145 78.345 406.069 L 81.500 407.993 87.179 407.996 L 92.857 408 94.493 406.364 L 96.129 404.729 95.314 403.973 L 94.500 403.217 88.171 402.789 L 81.841 402.361 80.990 400.984 L 80.140 399.608 81.105 397.804 L 82.070 396 87.380 396 L 92.690 396 94.345 394.171 L 96 392.343 96 391.671 L 96 391 87.750 391.032 L 79.500 391.064 77.913 392.282 M 98 399.434 L 98 408 105.429 408 L 112.857 408 114.438 406.419 L 116.018 404.839 115.450 403.919 L 114.882 403 109.491 403 L 104.100 403 103.800 397.250 L 103.500 391.500 100.750 391.184 L 98 390.867 98 399.434 M 166.486 395.250 L 165.849 399.500 166.174 403.500 L 166.500 407.500 169 407.500 L 171.500 407.500 171.810 403.750 L 172.121 400 172.810 400.027 L 173.500 400.053 177.892 404.078 L 182.284 408.102 184.392 407.801 L 186.500 407.500 186.790 399.250 L 187.081 391 184.647 391 L 182.214 391 181.607 392.582 L 181 394.164 181 396.641 L 181 399.119 176.186 395.060 L 171.371 391 169.247 391 L 167.123 391 166.486 395.250 M 198 399.570 L 198 408.139 200.250 407.820 L 202.500 407.500 202.810 403.750 L 203.121 400 203.746 400 L 204.371 400 209.115 404 L 213.859 408 215.394 408 L 216.930 408 218.012 405.978 L 219.094 403.955 218.797 397.728 L 218.500 391.500 215.750 391.184 L 213 390.867 213 394.934 L 213 399 212.362 399 L 211.724 399 207.384 395 L 203.045 391 200.522 391 L 198 391 198 399.570 M 223.881 392.007 L 222.262 392.953 221.018 395.957 L 219.773 398.961 220.414 401.512 L 221.054 404.062 224.277 406.027 L 227.500 407.993 234.643 407.996 L 241.786 408 242.393 406.418 L 243 404.836 243 402.118 L 243 399.400 241.800 398.200 L 240.600 397 236.734 397 L 232.869 397 230.934 398.035 L 229 399.070 229 400.035 L 229 401 232.441 401 L 235.882 401 236.500 402 L 237.118 403 233.250 403 L 229.382 403 227.441 401.559 L 225.500 400.117 226.603 398.309 L 227.706 396.500 233.890 395.999 L 240.074 395.499 241.022 393.999 L 241.969 392.500 241.985 391.750 L 242 391 233.750 391.030 L 225.500 391.061 223.881 392.007 M 255.655 392.829 L 254 394.657 254 396.257 L 254 397.857 255.571 399.429 L 257.143 401 263.012 401 L 268.882 401 269.500 402 L 270.118 403 263.759 403 L 257.400 403 256.200 404.200 L 255 405.400 255 406.700 L 255 408 263.777 408 L 272.555 408 274.777 406.443 L 277 404.887 277 402.643 L 277 400.400 275.800 399.200 L 274.600 398 268.550 397.985 L 262.500 397.969 261 397 L 259.500 396.031 266.095 396.015 L 272.690 396 274.345 394.171 L 276 392.343 276 391.671 L 276 391 266.655 391 L 257.310 391 255.655 392.829 M 278.704 391.750 L 278.290 392.500 278.092 398.295 L 277.894 404.089 278.514 406.045 L 279.135 408 287.367 408 L 295.600 408 296.800 406.800 L 298 405.600 298 404.300 L 298 403 291.250 402.859 L 284.500 402.718 289.807 402.076 L 295.114 401.434 295.991 400.015 L 296.868 398.595 296.375 397.798 L 295.882 397 290.191 396.820 L 284.500 396.640 289.493 396.255 L 294.486 395.871 296.243 394.280 L 298 392.690 298 391.845 L 298 391 288.559 391 L 279.118 391 278.704 391.750 M 302.200 392.200 L 301 393.400 301 394.700 L 301 396 309.083 396 L 317.167 396 316.753 397.250 L 316.339 398.500 308.170 398.790 L 300 399.081 300 403.540 L 300 408 301.965 408 L 303.930 408 305 406 L 306.070 404 309.813 404 L 313.556 404 315.268 406 L 316.980 408 319.324 408 L 321.667 408 322.336 407.331 L 323.004 406.662 321.403 404.892 L 319.801 403.122 321.400 400.839 L 323 398.555 323 396.334 L 323 394.113 320.777 392.557 L 318.555 391 310.977 391 L 303.400 391 302.200 392.200 M 323.739 391.594 L 323.144 392.189 324.822 394.884 L 326.500 397.579 329.907 402.272 L 333.314 406.965 335.137 407.543 L 336.960 408.122 338.495 407.263 L 340.030 406.404 345.015 399.479 L 350 392.555 350 391.777 L 350 391 347.019 391 L 344.039 391 340.269 396.057 L 336.500 401.114 335 398.848 L 333.500 396.583 331.161 393.791 L 328.822 391 326.578 391 L 324.333 391 323.739 391.594 M 362.646 393.452 L 360 395.905 360 398.896 L 360 401.888 362.365 404.638 L 364.731 407.388 371.405 407.813 L 378.079 408.238 380.040 406.464 L 382 404.690 382 403.958 L 382 403.226 375.018 402.831 L 368.037 402.437 366.791 401.191 L 365.545 399.945 366.625 398.222 L 367.706 396.500 373.091 396.189 L 378.476 395.879 380.238 394.284 L 382 392.690 382 391.845 L 382 391 373.646 391 L 365.292 391 362.646 393.452 M 383.630 393.250 L 383.027 395.500 383.014 400.168 L 383 404.836 383.607 406.418 L 384.214 408 392.572 408 L 400.930 408 401.965 406.066 L 403 404.131 403 403.566 L 403 403 396.441 403 L 389.882 403 390.397 402.167 L 390.912 401.333 394.037 401.792 L 397.163 402.251 399.581 400.956 L 402 399.662 402 398.331 L 402 397 395.750 396.820 L 389.500 396.640 394.493 396.255 L 399.486 395.871 401.243 394.280 L 403 392.690 403 391.845 L 403 391 393.617 391 L 384.233 391 383.630 393.250 M 406.200 392.200 L 405 393.400 405 396.700 L 405 400 405.250 400.063 L 405.500 400.126 413 401.437 L 420.500 402.748 414.684 402.874 L 408.869 403 406.934 404.035 L 405 405.070 405 406.535 L 405 408 413.777 408 L 422.555 408 424.777 406.443 L 427 404.887 427 401.962 L 427 399.038 424.750 398.494 L 422.500 397.951 416.500 397.097 L 410.500 396.244 416.595 396.122 L 422.690 396 424.347 394.169 L 426.004 392.338 425.336 391.669 L 424.667 391 416.033 391 L 407.400 391 406.200 392.200" stroke="none" fill="#22c3bd" fill-rule="evenodd"/><path d="M 275.224 149.273 L 270 154.563 270 185.730 L 270 216.898 275.488 218.628 L 280.976 220.358 281.605 219.729 L 282.233 219.100 282.247 181.843 L 282.260 144.587 281.354 144.285 L 280.449 143.983 275.224 149.273 M 244.250 168.477 L 235 175.099 235 195.050 L 235 215 235.935 215 L 236.870 215 239.685 211.021 L 242.500 207.043 243.800 207.021 L 245.099 207 247.800 208.373 L 250.500 209.747 252.750 210.441 L 255 211.135 254.882 189.317 L 254.763 167.500 254.132 164.677 L 253.500 161.854 244.250 168.477 M 307.261 202.241 L 307.500 228.482 311 230.140 L 314.500 231.797 315.250 231.340 L 316 230.882 316 212.874 L 316 194.865 318 195.500 L 320 196.135 319.980 189.317 L 319.961 182.500 314.401 179.250 L 308.840 176 307.931 176 L 307.022 176 307.261 202.241 M 153.750 196.080 L 152 197.099 152 203.050 L 152 209 151 209 L 150 209 150 209.893 L 150 210.786 151.627 211.410 L 153.253 212.035 154.669 210.860 L 156.085 209.685 157.030 210.630 L 157.975 211.575 155.004 215.179 L 152.033 218.784 151.018 221.452 L 150.004 224.120 148.996 223.498 L 147.988 222.875 144.505 224.134 L 141.021 225.394 138.070 222.567 L 135.118 219.739 133.565 221.293 L 132.011 222.846 131.709 224.826 L 131.407 226.805 130.187 228.274 L 128.968 229.744 131.984 230.347 L 135 230.950 134.957 231.725 L 134.915 232.500 130.039 236.259 L 125.163 240.017 122.082 240.634 L 119 241.250 119 242.958 L 119 244.667 122.250 248.425 L 125.500 252.184 131 255.405 L 136.500 258.626 136.805 261.696 L 137.109 264.765 133.555 271.466 L 130 278.166 130 281.269 L 130 284.372 131.628 290.866 L 133.257 297.359 132.128 299.166 L 131 300.973 131 305.441 L 131 309.909 134.418 310.551 L 137.835 311.192 139.602 310.203 L 141.369 309.214 143.160 310.332 L 144.950 311.450 145.919 310.475 L 146.887 309.500 144.827 299 L 142.767 288.500 143.807 280.486 L 144.847 272.471 146.409 267.986 L 147.971 263.500 147.985 260.930 L 148 258.361 150.449 256.231 L 152.898 254.102 151.396 251.092 L 149.894 248.081 150.575 244.453 L 151.256 240.824 156.198 235.162 L 161.140 229.500 163.524 228.682 L 165.908 227.864 166.487 226.040 L 167.066 224.216 169.283 223.622 L 171.500 223.027 175.165 223.014 L 178.830 223 186.257 219.065 L 193.684 215.130 197.092 217.252 L 200.500 219.373 202.539 219.143 L 204.579 218.912 208.822 221.986 L 213.066 225.060 214.917 228.104 L 216.768 231.148 217.375 234.944 L 217.982 238.740 219.241 239.785 L 220.500 240.830 223.750 239.463 L 227 238.097 227.015 236.798 L 227.031 235.500 227.961 236.971 L 228.891 238.442 229.588 237.745 L 230.285 237.048 229.020 235.524 L 227.755 234 228.628 233.992 L 229.500 233.984 230.839 231.242 L 232.178 228.500 232.691 225.100 L 233.204 221.700 228.352 222.527 L 223.500 223.355 218.658 223.180 L 213.815 223.005 210.658 220.779 L 207.500 218.554 205.561 216.777 L 203.623 215 202.811 215 L 202 215 200.150 213.150 L 198.301 211.301 191.638 213.034 L 184.974 214.768 184.415 213.862 L 183.855 212.957 182.014 215.229 L 180.173 217.500 174.569 217.447 L 168.965 217.394 167.232 215.589 L 165.500 213.785 167.660 214.431 L 169.819 215.077 170.981 211.558 L 172.142 208.039 171.473 206.957 L 170.804 205.874 172.483 204.018 L 174.163 202.163 172.081 200.081 L 170 198 166.250 197.965 L 162.500 197.929 160 196.500 L 157.500 195.071 156.500 195.066 L 155.500 195.061 153.750 196.080 M 238.947 234.292 L 234.394 240.500 232.197 240.262 L 230 240.024 230 240.831 L 230 241.639 232.593 243.894 L 235.185 246.148 235.634 245.700 L 236.082 245.251 239.910 240.120 L 243.739 234.989 256.049 250.481 L 268.360 265.973 268.704 265.629 L 269.048 265.285 262.908 255.393 L 256.769 245.500 251.134 236.766 L 245.500 228.031 244.500 228.058 L 243.500 228.084 238.947 234.292 M 227 246.943 L 227 248.887 229.223 250.443 L 231.445 252 228.473 252.045 L 225.500 252.091 210 273.164 L 194.500 294.237 187.250 304.111 L 180 313.985 180 314.492 L 180 315 186 315 L 192 315 192 311.934 L 192 308.869 193.138 306.684 L 194.276 304.500 203.951 291 L 213.627 277.500 223.064 264.169 L 232.500 250.838 233.442 249.503 L 234.384 248.168 233.070 246.584 L 231.755 245 229.378 245 L 227 245 227 246.943 M 244.609 254.824 L 244.099 255.649 244.087 265.880 L 244.075 276.111 248.287 275.806 L 252.500 275.500 252.791 266.624 L 253.082 257.748 251.386 255.874 L 249.690 254 247.404 254 L 245.118 254 244.609 254.824 M 235.888 256.635 L 234.530 258.271 234.201 267.537 L 233.873 276.803 234.686 277.262 L 235.500 277.721 239.215 277.255 L 242.930 276.789 242.920 265.895 L 242.910 255 240.077 255 L 237.245 255 235.888 256.635 M 309.731 263.750 L 306.291 268.500 298.983 279.500 L 291.676 290.500 284.659 300.500 L 277.643 310.500 275.582 312.819 L 273.521 315.138 277.944 314.819 L 282.367 314.500 283.091 311.771 L 283.816 309.042 298.543 287.521 L 313.271 266 313.562 266 L 313.853 266 323.073 278.250 L 332.293 290.500 333.269 291.500 L 334.245 292.500 332.999 290 L 331.752 287.500 323.181 273.250 L 314.611 259 313.890 259 L 313.170 259 309.731 263.750 M 308.555 282.333 L 307.173 284.500 307.097 291.365 L 307.020 298.231 313.760 297.514 L 320.500 296.796 321.250 296.339 L 322 295.882 322 289.063 L 322 282.245 320.748 281.206 L 319.496 280.167 314.716 280.167 L 309.937 280.167 308.555 282.333 M 308.253 328.143 L 305.006 329.056 299.667 336.278 L 294.328 343.500 284.356 357.500 L 274.384 371.500 270.601 376.746 L 266.818 381.993 268.238 382.538 L 269.658 383.083 278.508 382.791 L 287.357 382.500 296.759 369 L 306.160 355.500 309.388 351.587 L 312.615 347.675 319.285 357.587 L 325.955 367.500 315.056 368 L 304.157 368.500 303.538 369.124 L 302.918 369.749 298.959 375.055 L 295 380.361 295 381.681 L 295 383 326 383 L 357 383 357 382.135 L 357 381.270 355.148 378.885 L 353.297 376.500 343.855 363 L 334.412 349.500 327.816 339.978 L 321.220 330.456 318.860 329.306 L 316.500 328.156 314 327.693 L 311.500 327.230 308.253 328.143 M 83.262 330.250 L 81.174 332.500 77.164 346 L 73.153 359.500 70.076 369.718 L 67 379.937 67 381.509 L 67 383.081 75.170 382.790 L 83.339 382.500 84.071 380 L 84.803 377.500 87.952 365.500 L 91.101 353.500 91.610 352.013 L 92.119 350.525 100.229 365.818 L 108.339 381.111 110.044 382.024 L 111.750 382.936 115.740 383.574 L 119.731 384.213 122.761 381.356 L 125.792 378.500 132.524 365.500 L 139.257 352.500 140.056 351.623 L 140.854 350.746 141.863 354.623 L 142.871 358.500 146.092 370.750 L 149.313 383 157.657 383 L 166 383 166 381.582 L 166 380.163 162.608 369.332 L 159.217 358.500 155.921 346 L 152.626 333.500 149.890 330.750 L 147.154 328 142.764 328 L 138.374 328 135.834 330.750 L 133.294 333.500 130.030 339.500 L 126.767 345.500 122.308 353.737 L 117.850 361.975 117.001 362.499 L 116.153 363.023 111.935 355.262 L 107.716 347.500 102.708 338.705 L 97.699 329.909 95.915 328.955 L 94.131 328 89.740 328 L 85.349 328 83.262 330.250 M 175 328.895 L 172.500 329.590 172.500 356.045 L 172.500 382.500 181 382.500 L 189.500 382.500 189.198 356.070 L 188.895 329.639 188.389 328.820 L 187.882 328 182.691 328.100 L 177.500 328.199 175 328.895 M 202.056 329.944 L 200.112 331.888 199.514 335.194 L 198.916 338.500 199.208 360.500 L 199.500 382.500 207.224 382.792 L 214.949 383.083 215.224 367.539 L 215.500 351.994 232.777 367.386 L 250.054 382.777 252.777 383.298 L 255.499 383.818 258.756 382.457 L 262.013 381.097 263.024 378.436 L 264.036 375.776 263.768 352.138 L 263.500 328.500 256 328.500 L 248.500 328.500 248 343.801 L 247.500 359.103 230.150 343.551 L 212.800 328 208.400 328 L 204 328 202.056 329.944 M 375.500 329.391 L 370.500 330.612 367.699 332.454 L 364.898 334.297 363.307 337.373 L 361.717 340.448 361.641 345.694 L 361.565 350.941 363.591 353.720 L 365.617 356.500 370.020 358.750 L 374.424 361 394.021 361 L 413.618 361 415.559 362.441 L 417.500 363.883 416.393 365.691 L 415.286 367.500 392.660 368 L 370.035 368.500 368.577 370.585 L 367.118 372.669 363.559 376.929 L 360 381.189 360 382.173 L 360 383.156 389.750 382.828 L 419.500 382.500 424.212 380.179 L 428.925 377.858 430.962 374.561 L 433 371.264 433 365.582 L 433 359.901 431.549 357.095 L 430.098 354.288 425.113 352.144 L 420.129 350 400.636 350 L 381.143 350 379.571 348.429 L 378 346.857 378 345.964 L 378 345.070 379.934 344.035 L 381.869 343 401.389 343 L 420.909 343 425.955 336.764 L 431 330.529 431 329.264 L 431 328 405.750 328.085 L 380.500 328.170 375.500 329.391" stroke="none" fill="#cec079" fill-rule="evenodd"/></svg>