<?xml version="1.0" encoding="UTF-8"?>
<svg xmlns="http://www.w3.org/2000/svg" xmlns:xlink="http://www.w3.org/1999/xlink" width="250px" height="250px" viewBox="0 0 250 250" version="1.1">
<g id="surface1">
<path style=" stroke:none;fill-rule:evenodd;fill:rgb(13.333333%,76.470588%,74.117647%);fill-opacity:1;" d="M 143.148438 47.84375 L 142.25 49.183594 L 140.402344 51.042969 L 138.558594 52.90625 L 134.652344 54.402344 L 130.75 55.898438 L 115.007812 59.984375 L 111.054688 61.507812 L 107.105469 63.03125 L 104.179688 64.925781 L 101.25 66.820312 L 98.878906 69.460938 L 96.503906 72.101562 L 97.058594 73 L 96.019531 73 L 93.003906 78.25 L 93.246094 78.902344 L 93.488281 79.550781 L 92.910156 79.195312 L 92.328125 78.835938 L 92.660156 79.695312 L 92.988281 80.550781 L 92.515625 80.261719 L 92.046875 79.96875 L 91.492188 82.109375 L 90.941406 84.25 L 90.707031 85.066406 L 90.46875 85.882812 L 91.320312 86.207031 L 92.171875 86.535156 L 92.601562 85.890625 L 93.035156 85.25 L 93.847656 83.75 L 94.65625 82.25 L 95.703125 80.769531 L 96.75 79.285156 L 97.9375 78.019531 L 99.125 76.75 L 98.722656 77.5 L 98.316406 78.25 L 102.902344 74.070312 L 107.035156 71.960938 L 108.265625 71.492188 L 109.5 71.023438 L 109.5 71.367188 L 107.480469 72.703125 L 105.464844 74.039062 L 105.808594 74.597656 L 106.15625 75.15625 L 105.578125 74.796875 L 105 74.441406 L 105 75.558594 L 104.164062 75.042969 L 102.402344 76.894531 L 100.644531 78.75 L 100.324219 79.65625 L 100.007812 80.5625 L 99.378906 80.203125 L 98.75 79.839844 L 99.460938 80.628906 L 98.734375 82.03125 L 98.007812 83.4375 L 97.378906 83.816406 L 96.75 84.191406 L 97.5 83.222656 L 98.25 82.25 L 97.375 82.9375 L 96.5 83.621094 L 96.5 85.5 L 95.566406 85.5 L 94.800781 87.75 L 94.769531 88 L 94.742188 88.25 L 92.867188 92.179688 L 92.203125 94.964844 L 91.535156 97.75 L 91.519531 102.023438 L 91.5 106.300781 L 92.5625 107.363281 L 98.75 105.738281 L 100 104.941406 L 100.003906 102.34375 L 100.011719 99.75 L 100.710938 97.441406 L 101.414062 95.132812 L 103.492188 91.054688 L 103.019531 90.761719 L 102.542969 90.46875 L 102.808594 89.773438 L 103.078125 89.078125 L 102.527344 88.050781 L 101.976562 87.019531 L 102.277344 85.824219 L 102.578125 84.625 L 103.6875 84.121094 L 104.792969 83.613281 L 106.21875 83.773438 L 107.648438 83.929688 L 108.367188 85.09375 L 109.933594 84.285156 L 111.5 83.472656 L 111.5 82.941406 L 110.921875 83.296875 L 110.34375 83.65625 L 111.070312 82.484375 L 111.875 82.984375 L 117.25 81.398438 L 117.875 80.886719 L 118.5 80.378906 L 118.5 80.960938 L 124.375 78.941406 L 130.25 76.917969 L 131.039062 76.207031 L 131.832031 75.496094 L 132.101562 75.769531 L 132.375 76.042969 L 135.5625 73.875 L 138.75 71.710938 L 140.863281 68.578125 L 142.976562 65.441406 L 143.804688 62.84375 L 144.632812 60.25 L 144.871094 53.375 L 145.113281 46.5 L 144.046875 46.5 L 143.148438 47.84375 M 142.003906 84.875 L 142.003906 98.25 L 142.644531 110.796875 L 147.355469 112.40625 L 152.066406 114.019531 L 152.550781 113.71875 L 153.035156 113.421875 L 152.925781 78.796875 L 151.996094 77.0625 L 143.464844 71.5 L 142 71.5 L 142.003906 84.875 M 128.269531 93.613281 L 128.550781 105.722656 L 129.152344 106.113281 L 129.75 106.503906 L 131.585938 107.070312 L 133.425781 107.636719 L 134.210938 107.332031 L 135 107.03125 L 135 87.277344 L 132.140625 84.390625 L 129.28125 81.5 L 127.988281 81.5 L 128.269531 93.613281 M 112.203125 94.15625 L 108.75 96.277344 L 108.613281 103.828125 L 108.472656 111.382812 L 109.269531 111.6875 L 110.0625 111.992188 L 116.5 110.773438 L 116.5 92.558594 L 116.078125 92.296875 L 115.652344 92.035156 L 112.203125 94.15625 M 158.835938 99.375 L 158.613281 99.75 L 158.464844 103.75 L 158.3125 107.75 L 158.40625 112.050781 L 158.5 116.347656 L 162.46875 118.136719 L 163.3125 119.070312 L 164.15625 120 L 165 120 L 165 103.070312 L 163.339844 101.410156 L 161.429688 100.207031 L 159.519531 99 L 159.058594 99 L 158.835938 99.375 M 119.1875 109.222656 L 116.25 113.039062 L 116.238281 113.394531 L 116.222656 113.75 L 115.492188 115.375 L 114.757812 117 L 113.878906 117 L 114.511719 117.761719 L 115.140625 118.523438 L 114.753906 118.886719 L 114.363281 119.25 L 114.152344 118.65625 L 113.9375 118.0625 L 112 120 L 111.375 120.03125 L 110.75 120.058594 L 107.84375 123.90625 L 104.941406 127.75 L 100.453125 133.5 L 95.96875 139.25 L 84.75 153.460938 L 83.394531 153.765625 L 82.035156 154.070312 L 76.894531 154.746094 L 71.75 155.421875 L 70.921875 154.625 L 65.75 156.390625 L 55.367188 157.679688 L 57.75 158.5625 L 73 158.042969 L 88.25 157.527344 L 90.25 154.839844 L 93.957031 149.796875 L 97.664062 144.75 L 101.101562 140.25 L 106.613281 132.917969 L 112.121094 125.582031 L 113.933594 125.847656 L 115.75 126.109375 L 113.5 124.445312 L 113.5 122.5 L 115.671875 122.5 L 116.515625 123.261719 L 117.355469 124.023438 L 118.054688 123.167969 L 118.75 122.308594 L 118.148438 122.671875 L 117.542969 123.03125 L 116.273438 121.925781 L 115 120.820312 L 115 119.933594 L 115.941406 120.230469 L 116.882812 120.53125 L 117.460938 118.234375 L 119.507812 115.492188 L 121.550781 112.75 L 122.734375 112.75 L 127.992188 120.570312 L 133.25 128.386719 L 136.679688 133.429688 L 140.113281 138.472656 L 140.761719 139.011719 L 141.414062 139.550781 L 147.875 130.902344 L 154.339844 122.25 L 155.15625 121.574219 L 155.972656 120.902344 L 166.910156 126.496094 L 166.792969 125.691406 L 166.675781 124.882812 L 164.265625 121.96875 L 161.855469 119.050781 L 161.050781 118.71875 L 160.25 118.382812 L 153.25 115.976562 L 146.25 113.574219 L 135.25 109.726562 L 124.25 105.882812 L 122.125 105.40625 L 119.1875 109.222656 M 94.351562 108.875 L 92 110.167969 L 92 111.820312 L 92.796875 114.535156 L 93.597656 117.25 L 95.320312 120.550781 L 97.046875 123.851562 L 102.078125 129.5 L 102.96875 129.5 L 105.019531 126.78125 L 107.070312 124.066406 L 106.453125 122.90625 L 105.835938 121.75 L 104.171875 119.324219 L 102.511719 116.902344 L 101.496094 113.613281 L 100.480469 110.328125 L 99.902344 109.632812 L 99.324219 108.933594 L 96.707031 107.582031 L 94.351562 108.875 M 155.28125 125.125 L 154.019531 126.75 L 141.824219 143.25 L 136.886719 149.878906 L 131.949219 156.511719 L 132.253906 157.003906 L 132.558594 157.5 L 136.84375 157.5 L 137.6875 156.566406 L 138.53125 155.636719 L 143.742188 148.191406 L 148.949219 140.75 L 149.59375 139.5 L 150.234375 138.25 L 151.242188 136.761719 L 152.25 135.277344 L 152.863281 134.613281 L 153.476562 133.953125 L 154.253906 132.351562 L 155.035156 130.75 L 157.113281 128.25 L 158.597656 130.25 L 166.496094 142.5 L 174.390625 154.75 L 175.320312 155.871094 L 176.25 156.996094 L 194.117188 157.082031 L 194.621094 156.582031 L 195.121094 156.078125 L 184.265625 143.164062 L 173.40625 130.25 L 171.835938 129.359375 L 157.398438 123.5 L 156.542969 123.5 L 155.28125 125.125 M 63 195.464844 L 59.25 195.75 L 58.640625 202.75 L 58.871094 203.375 L 59.105469 204 L 66.929688 204 L 68.5 202.429688 L 68.5 201.5 L 65.125 201.414062 L 61.75 201.324219 L 64 201.128906 L 66.246094 200.929688 L 67.113281 200.148438 L 67.976562 199.367188 L 67.707031 198.933594 L 67.441406 198.5 L 64.59375 198.40625 L 61.75 198.316406 L 64.320312 198.132812 L 66.890625 197.953125 L 68.710938 195.9375 L 67.25 195.015625 L 66.75 195.179688 L 63 195.464844 M 74.71875 195.382812 L 74.183594 195.75 L 71.59375 199.199219 L 69 202.648438 L 69 204 L 71.25 203.984375 L 72.304688 203.25 L 75.210938 199.25 L 75.359375 199.035156 L 75.511719 198.824219 L 76.238281 199.785156 L 76.96875 200.75 L 77 201.5 L 74.035156 201.5 L 73.515625 202.46875 L 73 203.433594 L 73 204 L 81.441406 204 L 81.777344 203.453125 L 82.113281 202.910156 L 77.371094 195.964844 L 76.46875 195.484375 L 75.566406 195 L 75.40625 195.007812 L 75.25 195.015625 L 74.71875 195.382812 M 38.957031 196.140625 L 38.164062 196.75 L 37.546875 197.90625 L 36.933594 199.058594 L 37.265625 200.566406 L 37.59375 202.074219 L 40.75 203.996094 L 43.589844 203.996094 L 46.429688 204 L 48.066406 202.363281 L 47.65625 201.988281 L 47.25 201.609375 L 40.921875 201.179688 L 40.070312 199.804688 L 40.550781 198.902344 L 41.035156 198 L 46.34375 198 L 48 196.171875 L 48 195.5 L 39.75 195.53125 L 38.957031 196.140625 M 49 199.71875 L 49 204 L 56.429688 204 L 57.21875 203.210938 L 58.007812 202.417969 L 57.726562 201.960938 L 57.441406 201.5 L 52.050781 201.5 L 51.898438 198.625 L 51.75 195.75 L 50.375 195.59375 L 49 195.433594 L 49 199.71875 M 83.242188 197.625 L 82.925781 199.75 L 83.085938 201.75 L 83.25 203.75 L 85.75 203.75 L 85.90625 201.875 L 86.058594 200 L 86.40625 200.011719 L 86.75 200.027344 L 91.140625 204.050781 L 92.195312 203.902344 L 93.25 203.75 L 93.539062 195.5 L 91.105469 195.5 L 90.804688 196.289062 L 90.5 197.082031 L 90.5 199.558594 L 88.09375 197.53125 L 85.683594 195.5 L 83.5625 195.5 L 83.242188 197.625 M 99 199.785156 L 99 204.070312 L 101.25 203.75 L 101.40625 201.875 L 101.558594 200 L 102.183594 200 L 104.558594 202 L 106.929688 204 L 108.464844 204 L 109.007812 202.988281 L 109.546875 201.976562 L 109.25 195.75 L 107.875 195.59375 L 106.5 195.433594 L 106.5 199.5 L 105.863281 199.5 L 103.691406 197.5 L 101.523438 195.5 L 99 195.5 L 99 199.785156 M 111.941406 196.003906 L 111.132812 196.476562 L 110.507812 197.976562 L 109.886719 199.480469 L 110.207031 200.757812 L 110.527344 202.03125 L 112.136719 203.011719 L 113.75 203.996094 L 117.320312 203.996094 L 120.894531 204 L 121.195312 203.210938 L 121.5 202.417969 L 121.5 199.699219 L 120.898438 199.101562 L 120.300781 198.5 L 116.433594 198.5 L 115.46875 199.015625 L 114.5 199.535156 L 114.5 200.5 L 117.941406 200.5 L 118.558594 201.5 L 114.691406 201.5 L 113.71875 200.78125 L 112.75 200.058594 L 113.300781 199.15625 L 113.851562 198.25 L 116.945312 198 L 120.035156 197.75 L 120.511719 197 L 120.984375 196.25 L 121 195.5 L 112.75 195.53125 L 111.941406 196.003906 M 127.828125 196.414062 L 127 197.328125 L 127 198.929688 L 128.570312 200.5 L 134.441406 200.5 L 135.058594 201.5 L 128.699219 201.5 L 128.101562 202.101562 L 127.5 202.699219 L 127.5 204 L 136.277344 204 L 137.386719 203.222656 L 138.5 202.445312 L 138.5 200.199219 L 137.898438 199.601562 L 137.300781 199 L 134.273438 198.992188 L 131.25 198.984375 L 129.75 198.015625 L 136.34375 198 L 138 196.171875 L 138 195.5 L 128.65625 195.5 L 127.828125 196.414062 M 139.351562 195.875 L 139.144531 196.25 L 139.046875 199.148438 L 138.945312 202.042969 L 139.257812 203.023438 L 139.566406 204 L 147.800781 204 L 148.398438 203.398438 L 149 202.800781 L 149 201.5 L 142.25 201.359375 L 144.902344 201.039062 L 147.558594 200.71875 L 148.433594 199.296875 L 147.941406 198.5 L 145.09375 198.410156 L 142.25 198.320312 L 144.746094 198.128906 L 147.242188 197.933594 L 148.121094 197.140625 L 149 196.34375 L 149 195.5 L 139.558594 195.5 L 139.351562 195.875 M 151.101562 196.101562 L 150.5 196.699219 L 150.5 198 L 158.582031 198 L 158.167969 199.25 L 154.085938 199.394531 L 150 199.539062 L 150 204 L 151.964844 204 L 153.035156 202 L 156.777344 202 L 158.488281 204 L 160.832031 204 L 161.167969 203.664062 L 161.503906 203.332031 L 160.703125 202.445312 L 159.902344 201.5625 L 160.699219 200.417969 L 161.5 199.277344 L 161.5 197.054688 L 160.386719 196.277344 L 159.277344 195.5 L 151.699219 195.5 L 151.101562 196.101562 M 161.871094 195.796875 L 161.570312 196.09375 L 163.25 198.789062 L 166.65625 203.484375 L 167.570312 203.773438 L 168.480469 204.0625 L 169.246094 203.632812 L 170.015625 203.203125 L 172.507812 199.738281 L 175 196.277344 L 175 195.5 L 172.019531 195.5 L 170.132812 198.027344 L 168.25 200.558594 L 166.75 198.292969 L 165.582031 196.894531 L 164.410156 195.5 L 162.167969 195.5 L 161.871094 195.796875 M 181.324219 196.726562 L 180 197.953125 L 180 200.945312 L 182.367188 203.695312 L 189.039062 204.117188 L 191 202.34375 L 191 201.613281 L 187.507812 201.414062 L 184.019531 201.21875 L 182.773438 199.972656 L 183.3125 199.109375 L 183.851562 198.25 L 186.546875 198.09375 L 189.238281 197.941406 L 190.117188 197.140625 L 191 196.34375 L 191 195.5 L 182.644531 195.5 L 181.324219 196.726562 M 191.816406 196.625 L 191.511719 197.75 L 191.507812 200.085938 L 191.5 202.417969 L 191.804688 203.210938 L 192.105469 204 L 200.464844 204 L 200.984375 203.03125 L 201.5 202.066406 L 201.5 201.5 L 194.941406 201.5 L 195.199219 201.082031 L 195.457031 200.667969 L 197.019531 200.894531 L 198.582031 201.125 L 199.789062 200.476562 L 201 199.832031 L 201 198.5 L 194.75 198.320312 L 197.246094 198.128906 L 199.742188 197.933594 L 200.621094 197.140625 L 201.5 196.34375 L 201.5 195.5 L 192.117188 195.5 L 191.816406 196.625 M 203.101562 196.101562 L 202.5 196.699219 L 202.5 200 L 202.75 200.0625 L 210.25 201.375 L 207.34375 201.4375 L 204.433594 201.5 L 203.46875 202.015625 L 202.5 202.535156 L 202.5 204 L 211.277344 204 L 212.386719 203.222656 L 213.5 202.445312 L 213.5 199.519531 L 212.375 199.246094 L 211.25 198.976562 L 208.25 198.546875 L 205.25 198.121094 L 208.296875 198.0625 L 211.34375 198 L 212.171875 197.085938 L 213.003906 196.167969 L 212.667969 195.835938 L 212.332031 195.5 L 203.699219 195.5 L 203.101562 196.101562 "/>
<path style=" stroke:none;fill-rule:evenodd;fill:rgb(80.784314%,75.294118%,47.45098%);fill-opacity:1;" d="M 137.613281 74.636719 L 135 77.28125 L 135 108.449219 L 137.742188 109.3125 L 140.488281 110.179688 L 140.800781 109.863281 L 141.117188 109.550781 L 141.125 90.921875 L 141.128906 72.292969 L 140.675781 72.140625 L 140.222656 71.992188 L 137.613281 74.636719 M 122.125 84.238281 L 117.5 87.550781 L 117.5 107.5 L 118.433594 107.5 L 119.84375 105.511719 L 121.25 103.523438 L 121.898438 103.511719 L 122.550781 103.5 L 123.898438 104.1875 L 125.25 104.875 L 126.375 105.21875 L 127.5 105.566406 L 127.441406 94.660156 L 127.382812 83.75 L 127.066406 82.339844 L 126.75 80.925781 L 122.125 84.238281 M 153.628906 101.121094 L 153.75 114.242188 L 157.25 115.898438 L 157.625 115.671875 L 158 115.441406 L 158 97.433594 L 160 98.066406 L 159.988281 94.660156 L 159.980469 91.25 L 157.199219 89.625 L 154.421875 88 L 153.511719 88 L 153.628906 101.121094 M 76.875 98.039062 L 76 98.550781 L 76 104.5 L 75 104.5 L 75 105.394531 L 75.8125 105.703125 L 76.625 106.015625 L 77.335938 105.429688 L 78.042969 104.84375 L 78.988281 105.789062 L 77.503906 107.589844 L 76.015625 109.390625 L 75.507812 110.726562 L 75.003906 112.058594 L 74.496094 111.75 L 73.992188 111.4375 L 72.253906 112.066406 L 70.511719 112.695312 L 69.035156 111.285156 L 67.558594 109.871094 L 66.78125 110.648438 L 66.003906 111.421875 L 65.855469 112.414062 L 65.703125 113.402344 L 64.484375 114.871094 L 65.992188 115.171875 L 67.5 115.476562 L 67.476562 115.863281 L 67.457031 116.25 L 62.582031 120.007812 L 61.039062 120.316406 L 59.5 120.625 L 59.5 122.332031 L 61.125 124.210938 L 62.75 126.09375 L 68.25 129.3125 L 68.554688 132.382812 L 66.777344 135.734375 L 65 139.082031 L 65 142.1875 L 65.8125 145.433594 L 66.628906 148.679688 L 66.0625 149.582031 L 65.5 150.488281 L 65.5 154.953125 L 67.210938 155.277344 L 68.917969 155.597656 L 70.683594 154.605469 L 71.578125 155.164062 L 72.476562 155.726562 L 73.445312 154.75 L 71.382812 144.25 L 72.421875 136.234375 L 73.984375 131.75 L 74 129.179688 L 75.222656 128.117188 L 76.449219 127.050781 L 75.699219 125.546875 L 74.945312 124.039062 L 75.289062 122.226562 L 75.628906 120.410156 L 78.097656 117.582031 L 80.570312 114.75 L 81.761719 114.339844 L 82.953125 113.933594 L 83.242188 113.019531 L 83.53125 112.109375 L 84.640625 111.8125 L 85.75 111.511719 L 87.582031 111.507812 L 89.414062 111.5 L 93.128906 109.53125 L 96.84375 107.566406 L 98.546875 108.625 L 100.25 109.6875 L 101.269531 109.570312 L 102.289062 109.457031 L 104.410156 110.992188 L 106.53125 112.53125 L 107.457031 114.050781 L 108.382812 115.574219 L 108.992188 119.371094 L 109.621094 119.890625 L 110.25 120.414062 L 113.5 119.046875 L 113.515625 117.75 L 113.980469 118.484375 L 114.445312 119.222656 L 114.792969 118.871094 L 115.140625 118.523438 L 114.511719 117.761719 L 113.878906 117 L 114.3125 116.996094 L 114.75 116.992188 L 115.417969 115.621094 L 116.089844 114.25 L 116.34375 112.550781 L 116.601562 110.851562 L 114.175781 111.261719 L 111.75 111.675781 L 106.90625 111.503906 L 103.75 109.277344 L 102.78125 108.386719 L 101.8125 107.5 L 101 107.5 L 99.152344 105.652344 L 95.820312 106.515625 L 92.488281 107.382812 L 91.925781 106.476562 L 91.007812 107.613281 L 90.085938 108.75 L 84.484375 108.695312 L 82.75 106.890625 L 83.828125 107.214844 L 84.910156 107.539062 L 85.492188 105.777344 L 86.070312 104.019531 L 85.738281 103.476562 L 85.402344 102.9375 L 86.242188 102.007812 L 87.082031 101.082031 L 85 99 L 83.125 98.984375 L 81.25 98.964844 L 78.75 97.535156 L 78.25 97.53125 L 77.75 97.53125 L 76.875 98.039062 M 119.472656 117.144531 L 117.195312 120.25 L 116.097656 120.132812 L 115 120.011719 L 115 120.820312 L 116.296875 121.945312 L 117.59375 123.074219 L 117.816406 122.851562 L 118.039062 122.625 L 119.953125 120.058594 L 121.871094 117.496094 L 128.023438 125.242188 L 134.179688 132.988281 L 134.351562 132.816406 L 134.523438 132.640625 L 128.382812 122.75 L 122.75 114.015625 L 122.25 114.027344 L 121.75 114.042969 L 119.472656 117.144531 M 113.5 123.472656 L 113.5 124.445312 L 114.613281 125.222656 L 115.722656 126 L 114.238281 126.023438 L 112.75 126.046875 L 97.25 147.117188 L 90 156.992188 L 90 157.5 L 96 157.5 L 96 154.433594 L 96.570312 153.34375 L 97.136719 152.25 L 101.976562 145.5 L 106.8125 138.75 L 111.53125 132.085938 L 116.25 125.417969 L 116.722656 124.75 L 117.191406 124.085938 L 115.878906 122.5 L 113.5 122.5 L 113.5 123.472656 M 122.304688 127.410156 L 122.050781 127.824219 L 122.042969 132.941406 L 122.039062 138.054688 L 126.25 137.75 L 126.539062 128.875 L 124.84375 127 L 122.558594 127 L 122.304688 127.410156 M 117.945312 128.316406 L 117.265625 129.136719 L 116.9375 138.402344 L 117.34375 138.632812 L 117.75 138.859375 L 119.609375 138.628906 L 121.464844 138.394531 L 121.460938 132.949219 L 121.453125 127.5 L 118.621094 127.5 L 117.945312 128.316406 M 154.867188 131.875 L 153.144531 134.25 L 145.839844 145.25 L 142.328125 150.25 L 138.820312 155.25 L 137.789062 156.410156 L 136.761719 157.570312 L 141.183594 157.25 L 141.546875 155.886719 L 141.90625 154.519531 L 149.273438 143.761719 L 156.636719 133 L 156.925781 133 L 161.535156 139.125 L 166.148438 145.25 L 166.632812 145.75 L 167.121094 146.25 L 166.5 145 L 165.875 143.75 L 157.304688 129.5 L 156.585938 129.5 L 154.867188 131.875 M 154.277344 141.167969 L 153.585938 142.25 L 153.546875 145.683594 L 153.511719 149.117188 L 156.878906 148.757812 L 160.25 148.398438 L 160.625 148.167969 L 161 147.941406 L 161 141.121094 L 160.375 140.601562 L 159.746094 140.082031 L 154.96875 140.082031 L 154.277344 141.167969 M 154.125 164.070312 L 152.503906 164.527344 L 149.832031 168.140625 L 147.164062 171.75 L 142.179688 178.75 L 137.191406 185.75 L 135.300781 188.371094 L 133.410156 190.996094 L 134.117188 191.269531 L 134.828125 191.542969 L 139.253906 191.394531 L 143.679688 191.25 L 153.078125 177.75 L 154.695312 175.792969 L 156.308594 173.835938 L 159.640625 178.792969 L 162.976562 183.75 L 152.078125 184.25 L 151.460938 184.875 L 147.5 190.179688 L 147.5 191.5 L 178.5 191.5 L 178.5 190.636719 L 177.574219 189.441406 L 176.648438 188.25 L 171.925781 181.5 L 167.207031 174.75 L 163.90625 169.988281 L 160.609375 165.226562 L 158.25 164.078125 L 157 163.847656 L 155.75 163.613281 L 154.125 164.070312 M 41.632812 165.125 L 40.585938 166.25 L 36.578125 179.75 L 33.5 189.96875 L 33.5 191.539062 L 37.585938 191.394531 L 41.667969 191.25 L 42.402344 188.75 L 45.550781 176.75 L 45.804688 176.007812 L 46.058594 175.261719 L 50.113281 182.910156 L 54.167969 190.554688 L 55.023438 191.011719 L 55.875 191.46875 L 57.871094 191.785156 L 59.867188 192.105469 L 61.378906 190.679688 L 62.894531 189.25 L 69.628906 176.25 L 70.027344 175.8125 L 70.425781 175.371094 L 70.929688 177.3125 L 71.433594 179.25 L 73.046875 185.375 L 74.65625 191.5 L 83 191.5 L 83 190.082031 L 81.304688 184.664062 L 79.609375 179.25 L 76.3125 166.75 L 73.578125 164 L 69.1875 164 L 66.648438 166.75 L 63.382812 172.75 L 61.152344 176.867188 L 58.925781 180.988281 L 58.5 181.25 L 58.078125 181.511719 L 55.96875 177.632812 L 53.859375 173.75 L 51.355469 169.351562 L 48.847656 164.953125 L 47.066406 164 L 42.675781 164 L 41.632812 165.125 M 87.5 164.449219 L 86.25 164.796875 L 86.25 191.25 L 94.75 191.25 L 94.597656 178.035156 L 94.449219 164.820312 L 93.941406 164 L 91.34375 164.050781 L 88.75 164.097656 L 87.5 164.449219 M 101.027344 164.972656 L 100.054688 165.945312 L 99.757812 167.597656 L 99.457031 169.25 L 99.605469 180.25 L 99.75 191.25 L 103.613281 191.394531 L 107.472656 191.542969 L 107.613281 183.769531 L 107.75 175.996094 L 116.386719 183.691406 L 125.027344 191.386719 L 126.386719 191.648438 L 127.75 191.910156 L 129.378906 191.226562 L 131.007812 190.546875 L 131.511719 189.21875 L 132.019531 187.886719 L 131.882812 176.070312 L 131.75 164.25 L 124.25 164.25 L 124 171.902344 L 123.75 179.550781 L 115.074219 171.777344 L 106.398438 164 L 102 164 L 101.027344 164.972656 M 187.75 164.695312 L 185.25 165.304688 L 183.847656 166.226562 L 182.449219 167.148438 L 181.652344 168.6875 L 180.859375 170.222656 L 180.820312 172.847656 L 180.78125 175.46875 L 181.796875 176.859375 L 182.808594 178.25 L 185.011719 179.375 L 187.210938 180.5 L 206.808594 180.5 L 207.78125 181.21875 L 208.75 181.941406 L 208.195312 182.84375 L 207.644531 183.75 L 196.328125 184 L 185.015625 184.25 L 184.289062 185.292969 L 183.558594 186.335938 L 181.78125 188.464844 L 180 190.59375 L 180 191.578125 L 209.75 191.25 L 214.460938 188.929688 L 216.5 185.632812 L 216.5 179.949219 L 215.773438 178.546875 L 215.050781 177.144531 L 212.554688 176.070312 L 210.066406 175 L 190.570312 175 L 189 173.429688 L 189 172.535156 L 189.96875 172.015625 L 190.933594 171.5 L 210.453125 171.5 L 215.5 165.265625 L 215.5 164 L 190.25 164.085938 L 187.75 164.695312 "/>
</g>
</svg>
